<svg xmlns="http://www.w3.org/2000/svg" xmlns:xlink="http://www.w3.org/1999/xlink" width="1080" zoomAndPan="magnify" viewBox="0 0 810 809.999993" height="1080" preserveAspectRatio="xMidYMid meet" version="1.0"><defs><clipPath id="5f1dd42a41"><path d="M 601 58 L 798.863281 58 L 798.863281 256 L 601 256 Z M 601 58 " clip-rule="nonzero"/></clipPath><clipPath id="d4c52ea5a8"><path d="M 11.363281 78 L 798.863281 78 L 798.863281 748 L 11.363281 748 Z M 11.363281 78 " clip-rule="nonzero"/></clipPath></defs><g clip-path="url(#5f1dd42a41)"><path fill="#0084ff" d="M 700.21875 58.597656 C 701.832031 58.597656 703.441406 58.636719 705.046875 58.71875 C 706.65625 58.796875 708.261719 58.914062 709.867188 59.074219 C 711.46875 59.230469 713.066406 59.425781 714.660156 59.664062 C 716.253906 59.898438 717.839844 60.175781 719.417969 60.488281 C 720.996094 60.804688 722.570312 61.15625 724.128906 61.546875 C 725.691406 61.9375 727.246094 62.367188 728.785156 62.835938 C 730.328125 63.304688 731.855469 63.808594 733.371094 64.351562 C 734.886719 64.894531 736.390625 65.472656 737.878906 66.089844 C 739.367188 66.707031 740.839844 67.359375 742.292969 68.046875 C 743.75 68.734375 745.1875 69.460938 746.609375 70.21875 C 748.03125 70.976562 749.429688 71.769531 750.8125 72.597656 C 752.191406 73.425781 753.554688 74.289062 754.890625 75.183594 C 756.230469 76.078125 757.546875 77.003906 758.839844 77.964844 C 760.136719 78.925781 761.402344 79.914062 762.648438 80.9375 C 763.894531 81.957031 765.113281 83.007812 766.304688 84.089844 C 767.5 85.171875 768.664062 86.28125 769.804688 87.421875 C 770.945312 88.5625 772.054688 89.726562 773.136719 90.921875 C 774.21875 92.113281 775.269531 93.332031 776.289062 94.578125 C 777.3125 95.824219 778.300781 97.089844 779.261719 98.386719 C 780.222656 99.679688 781.148438 100.996094 782.042969 102.335938 C 782.9375 103.671875 783.800781 105.035156 784.628906 106.414062 C 785.457031 107.796875 786.25 109.195312 787.007812 110.617188 C 787.765625 112.039062 788.492188 113.476562 789.179688 114.933594 C 789.867188 116.386719 790.519531 117.859375 791.136719 119.347656 C 791.753906 120.835938 792.332031 122.335938 792.875 123.855469 C 793.417969 125.371094 793.921875 126.898438 794.390625 128.441406 C 794.859375 129.980469 795.289062 131.535156 795.679688 133.09375 C 796.070312 134.65625 796.421875 136.230469 796.738281 137.808594 C 797.050781 139.386719 797.328125 140.972656 797.5625 142.566406 C 797.800781 144.160156 797.996094 145.757812 798.152344 147.359375 C 798.3125 148.964844 798.429688 150.570312 798.507812 152.179688 C 798.589844 153.785156 798.628906 155.394531 798.628906 157.007812 C 798.628906 158.617188 798.589844 160.226562 798.507812 161.835938 C 798.429688 163.445312 798.3125 165.050781 798.152344 166.652344 C 797.996094 168.253906 797.800781 169.851562 797.5625 171.445312 C 797.328125 173.039062 797.050781 174.625 796.738281 176.207031 C 796.421875 177.785156 796.070312 179.355469 795.679688 180.917969 C 795.289062 182.480469 794.859375 184.03125 794.390625 185.574219 C 793.921875 187.113281 793.417969 188.644531 792.875 190.160156 C 792.332031 191.675781 791.753906 193.179688 791.136719 194.667969 C 790.519531 196.152344 789.867188 197.625 789.179688 199.082031 C 788.492188 200.539062 787.765625 201.976562 787.007812 203.394531 C 786.25 204.816406 785.457031 206.21875 784.628906 207.597656 C 783.800781 208.980469 782.9375 210.339844 782.042969 211.679688 C 781.148438 213.019531 780.222656 214.335938 779.261719 215.628906 C 778.300781 216.921875 777.3125 218.191406 776.289062 219.4375 C 775.269531 220.679688 774.21875 221.902344 773.136719 223.09375 C 772.054688 224.289062 770.945312 225.453125 769.804688 226.59375 C 768.664062 227.730469 767.5 228.839844 766.304688 229.921875 C 765.113281 231.003906 763.894531 232.054688 762.648438 233.078125 C 761.402344 234.097656 760.136719 235.089844 758.839844 236.050781 C 757.546875 237.007812 756.230469 237.9375 754.890625 238.832031 C 753.554688 239.726562 752.191406 240.585938 750.8125 241.414062 C 749.429688 242.242188 748.03125 243.035156 746.609375 243.796875 C 745.1875 244.554688 743.75 245.277344 742.292969 245.96875 C 740.839844 246.65625 739.367188 247.308594 737.878906 247.925781 C 736.390625 248.539062 734.886719 249.121094 733.371094 249.664062 C 731.855469 250.207031 730.328125 250.710938 728.785156 251.175781 C 727.246094 251.644531 725.691406 252.074219 724.128906 252.464844 C 722.570312 252.855469 720.996094 253.210938 719.417969 253.523438 C 717.839844 253.839844 716.253906 254.113281 714.660156 254.351562 C 713.066406 254.585938 711.46875 254.785156 709.867188 254.941406 C 708.261719 255.097656 706.65625 255.21875 705.046875 255.296875 C 703.441406 255.375 701.832031 255.414062 700.21875 255.414062 C 698.609375 255.414062 697 255.375 695.390625 255.296875 C 693.78125 255.21875 692.175781 255.097656 690.574219 254.941406 C 688.972656 254.785156 687.375 254.585938 685.78125 254.351562 C 684.1875 254.113281 682.601562 253.839844 681.019531 253.523438 C 679.441406 253.210938 677.871094 252.855469 676.308594 252.464844 C 674.746094 252.074219 673.195312 251.644531 671.652344 251.175781 C 670.113281 250.710938 668.582031 250.207031 667.066406 249.664062 C 665.550781 249.121094 664.046875 248.539062 662.558594 247.925781 C 661.074219 247.308594 659.601562 246.65625 658.144531 245.96875 C 656.6875 245.277344 655.25 244.554688 653.832031 243.796875 C 652.410156 243.035156 651.007812 242.242188 649.628906 241.414062 C 648.246094 240.585938 646.886719 239.726562 645.546875 238.832031 C 644.207031 237.9375 642.890625 237.007812 641.597656 236.050781 C 640.304688 235.089844 639.035156 234.097656 637.789062 233.078125 C 636.546875 232.054688 635.324219 231.003906 634.132812 229.921875 C 632.9375 228.839844 631.773438 227.730469 630.632812 226.59375 C 629.496094 225.453125 628.386719 224.289062 627.304688 223.09375 C 626.222656 221.902344 625.171875 220.679688 624.148438 219.4375 C 623.128906 218.191406 622.136719 216.921875 621.175781 215.628906 C 620.21875 214.335938 619.289062 213.019531 618.394531 211.679688 C 617.5 210.339844 616.640625 208.980469 615.8125 207.597656 C 614.984375 206.21875 614.191406 204.816406 613.429688 203.394531 C 612.671875 201.976562 611.949219 200.539062 611.257812 199.082031 C 610.570312 197.625 609.917969 196.152344 609.300781 194.667969 C 608.6875 193.179688 608.105469 191.675781 607.5625 190.160156 C 607.019531 188.644531 606.515625 187.113281 606.046875 185.574219 C 605.582031 184.03125 605.152344 182.480469 604.761719 180.917969 C 604.371094 179.355469 604.015625 177.785156 603.703125 176.207031 C 603.386719 174.625 603.113281 173.039062 602.875 171.445312 C 602.640625 169.851562 602.441406 168.253906 602.285156 166.652344 C 602.128906 165.050781 602.007812 163.445312 601.929688 161.835938 C 601.851562 160.226562 601.8125 158.617188 601.8125 157.007812 C 601.8125 155.394531 601.851562 153.785156 601.929688 152.179688 C 602.007812 150.570312 602.128906 148.964844 602.285156 147.359375 C 602.441406 145.757812 602.640625 144.160156 602.875 142.566406 C 603.113281 140.972656 603.386719 139.386719 603.703125 137.808594 C 604.015625 136.230469 604.371094 134.65625 604.761719 133.09375 C 605.152344 131.535156 605.582031 129.980469 606.050781 128.441406 C 606.515625 126.898438 607.019531 125.371094 607.5625 123.855469 C 608.105469 122.335938 608.6875 120.835938 609.300781 119.347656 C 609.917969 117.859375 610.570312 116.386719 611.257812 114.933594 C 611.949219 113.476562 612.671875 112.039062 613.429688 110.617188 C 614.191406 109.195312 614.984375 107.796875 615.8125 106.414062 C 616.640625 105.035156 617.5 103.671875 618.394531 102.335938 C 619.292969 100.996094 620.21875 99.679688 621.175781 98.386719 C 622.136719 97.089844 623.128906 95.824219 624.148438 94.578125 C 625.171875 93.332031 626.222656 92.113281 627.304688 90.921875 C 628.386719 89.726562 629.496094 88.5625 630.632812 87.421875 C 631.773438 86.28125 632.941406 85.171875 634.132812 84.089844 C 635.324219 83.007812 636.546875 81.957031 637.789062 80.9375 C 639.035156 79.914062 640.304688 78.925781 641.597656 77.964844 C 642.890625 77.003906 644.207031 76.078125 645.546875 75.183594 C 646.886719 74.289062 648.246094 73.425781 649.628906 72.597656 C 651.007812 71.769531 652.410156 70.976562 653.832031 70.21875 C 655.25 69.460938 656.6875 68.734375 658.144531 68.046875 C 659.601562 67.359375 661.074219 66.707031 662.558594 66.089844 C 664.046875 65.472656 665.550781 64.894531 667.066406 64.351562 C 668.582031 63.808594 670.113281 63.304688 671.652344 62.835938 C 673.195312 62.367188 674.746094 61.9375 676.308594 61.546875 C 677.871094 61.15625 679.441406 60.804688 681.019531 60.488281 C 682.601562 60.175781 684.1875 59.898438 685.78125 59.664062 C 687.375 59.425781 688.972656 59.230469 690.574219 59.074219 C 692.175781 58.914062 693.78125 58.796875 695.390625 58.71875 C 697 58.636719 698.609375 58.597656 700.21875 58.597656 Z M 700.21875 58.597656 " fill-opacity="1" fill-rule="nonzero"/></g><g clip-path="url(#d4c52ea5a8)"><path fill="#0084ff" d="M 748.28125 306.90625 C 749.011719 306.683594 749.746094 306.480469 750.484375 306.300781 C 751.226562 306.121094 751.96875 305.964844 752.71875 305.828125 C 753.46875 305.691406 754.222656 305.578125 754.976562 305.488281 C 755.734375 305.394531 756.492188 305.328125 757.25 305.277344 C 758.011719 305.230469 758.773438 305.207031 759.535156 305.203125 C 760.296875 305.203125 761.054688 305.222656 761.816406 305.261719 C 762.578125 305.304688 763.335938 305.371094 764.09375 305.457031 C 764.847656 305.542969 765.601562 305.652344 766.351562 305.78125 C 767.101562 305.914062 767.847656 306.066406 768.589844 306.238281 C 769.332031 306.414062 770.066406 306.609375 770.796875 306.828125 C 771.527344 307.042969 772.25 307.285156 772.964844 307.542969 C 773.683594 307.804688 774.390625 308.082031 775.089844 308.386719 C 775.789062 308.6875 776.476562 309.007812 777.160156 309.351562 C 777.839844 309.691406 778.507812 310.054688 779.167969 310.433594 C 779.828125 310.816406 780.476562 311.214844 781.113281 311.636719 C 781.746094 312.054688 782.371094 312.492188 782.980469 312.949219 C 783.589844 313.402344 784.1875 313.875 784.769531 314.367188 C 785.351562 314.859375 785.917969 315.363281 786.472656 315.890625 C 787.023438 316.414062 787.5625 316.953125 788.082031 317.507812 C 788.605469 318.0625 789.109375 318.632812 789.597656 319.21875 C 790.082031 319.804688 790.554688 320.402344 791.007812 321.015625 C 791.457031 321.628906 791.894531 322.253906 792.308594 322.890625 C 792.726562 323.527344 793.121094 324.179688 793.5 324.839844 C 793.875 325.5 794.234375 326.171875 794.574219 326.855469 C 794.910156 327.539062 795.230469 328.230469 795.527344 328.929688 C 795.824219 329.632812 796.101562 330.339844 796.359375 331.058594 C 796.613281 331.773438 796.847656 332.5 797.0625 333.230469 C 797.277344 333.960938 797.46875 334.699219 797.640625 335.441406 C 797.808594 336.183594 797.960938 336.929688 798.085938 337.679688 C 798.210938 338.429688 798.316406 339.183594 798.398438 339.941406 C 798.480469 340.699219 798.542969 341.457031 798.582031 342.21875 C 798.617188 342.980469 798.632812 343.738281 798.628906 344.5 L 798.628906 550.640625 C 798.628906 688.410156 719.902344 747.457031 601.8125 747.457031 L 208.179688 747.457031 C 90.089844 747.457031 11.363281 688.410156 11.363281 550.640625 L 11.363281 275.097656 C 11.363281 137.324219 90.089844 78.28125 208.179688 78.28125 L 507.570312 78.28125 C 508.308594 78.289062 509.042969 78.320312 509.78125 78.371094 C 510.515625 78.421875 511.25 78.496094 511.980469 78.585938 C 512.714844 78.679688 513.441406 78.789062 514.167969 78.921875 C 514.894531 79.054688 515.617188 79.207031 516.332031 79.382812 C 517.050781 79.554688 517.761719 79.746094 518.46875 79.957031 C 519.175781 80.171875 519.875 80.402344 520.566406 80.65625 C 521.261719 80.90625 521.949219 81.175781 522.625 81.46875 C 523.304688 81.757812 523.972656 82.066406 524.636719 82.390625 C 525.296875 82.71875 525.949219 83.066406 526.589844 83.429688 C 527.230469 83.792969 527.863281 84.171875 528.484375 84.570312 C 529.105469 84.96875 529.714844 85.386719 530.3125 85.820312 C 530.910156 86.25 531.492188 86.699219 532.066406 87.164062 C 532.640625 87.632812 533.199219 88.113281 533.742188 88.609375 C 534.289062 89.105469 534.820312 89.617188 535.335938 90.140625 C 535.855469 90.667969 536.355469 91.207031 536.84375 91.761719 C 537.332031 92.316406 537.800781 92.882812 538.257812 93.464844 C 538.710938 94.042969 539.152344 94.636719 539.574219 95.242188 C 539.996094 95.847656 540.402344 96.464844 540.789062 97.089844 C 541.175781 97.71875 541.546875 98.355469 541.898438 99.003906 C 542.253906 99.652344 542.585938 100.308594 542.902344 100.976562 C 543.21875 101.644531 543.515625 102.316406 543.792969 103 C 544.070312 103.683594 544.328125 104.375 544.570312 105.074219 C 544.808594 105.769531 545.027344 106.472656 545.230469 107.183594 C 545.429688 107.894531 545.609375 108.609375 545.769531 109.328125 C 545.929688 110.050781 546.070312 110.773438 546.191406 111.5 C 546.3125 112.230469 546.410156 112.960938 546.488281 113.691406 C 546.570312 114.425781 546.628906 115.160156 546.667969 115.898438 C 546.703125 116.632812 546.722656 117.371094 546.71875 118.109375 C 546.714844 118.847656 546.691406 119.585938 546.648438 120.320312 C 546.605469 121.058594 546.542969 121.792969 546.457031 122.523438 C 546.371094 123.257812 546.265625 123.988281 546.140625 124.714844 C 546.015625 125.441406 545.871094 126.164062 545.703125 126.882812 C 543.332031 139.101562 542.402344 151.433594 542.914062 163.871094 C 543.421875 176.308594 545.359375 188.519531 548.722656 200.503906 C 549.640625 203.75 550.660156 206.964844 551.785156 210.144531 C 552.90625 213.328125 554.132812 216.46875 555.460938 219.570312 C 556.789062 222.671875 558.214844 225.726562 559.742188 228.738281 C 561.269531 231.746094 562.890625 234.703125 564.605469 237.609375 C 566.324219 240.511719 568.132812 243.359375 570.035156 246.144531 C 571.9375 248.933594 573.925781 251.65625 576.003906 254.3125 C 578.082031 256.972656 580.242188 259.558594 582.488281 262.078125 C 584.734375 264.59375 587.058594 267.039062 589.464844 269.40625 C 591.867188 271.773438 594.34375 274.0625 596.894531 276.269531 C 599.449219 278.476562 602.070312 280.597656 604.757812 282.636719 C 607.449219 284.671875 610.199219 286.621094 613.015625 288.480469 C 615.832031 290.339844 618.703125 292.105469 621.632812 293.777344 C 624.5625 295.453125 627.542969 297.027344 630.578125 298.507812 C 633.609375 299.988281 636.6875 301.367188 639.808594 302.648438 C 642.929688 303.929688 646.089844 305.109375 649.285156 306.183594 C 652.484375 307.261719 655.710938 308.234375 658.972656 309.097656 C 666.277344 311.050781 673.683594 312.472656 681.1875 313.363281 C 688.695312 314.253906 696.226562 314.609375 703.785156 314.421875 C 711.34375 314.238281 718.847656 313.515625 726.300781 312.253906 C 733.757812 310.996094 741.082031 309.210938 748.28125 306.90625 Z M 748.28125 306.90625 " fill-opacity="1" fill-rule="nonzero"/></g><path fill="#ffffff" d="M 404.996094 447.292969 C 400.863281 447.335938 396.734375 447.207031 392.609375 446.902344 C 388.488281 446.601562 384.386719 446.125 380.304688 445.480469 C 376.21875 444.832031 372.171875 444.015625 368.15625 443.03125 C 364.144531 442.042969 360.175781 440.890625 356.261719 439.570312 C 352.34375 438.253906 348.488281 436.773438 344.691406 435.132812 C 340.898438 433.488281 337.179688 431.691406 333.539062 429.738281 C 329.894531 427.785156 326.339844 425.679688 322.875 423.429688 C 319.40625 421.179688 316.042969 418.785156 312.777344 416.25 L 189.746094 317.824219 C 188.992188 317.21875 188.269531 316.578125 187.578125 315.90625 C 186.890625 315.230469 186.234375 314.523438 185.613281 313.785156 C 184.992188 313.042969 184.40625 312.277344 183.859375 311.480469 C 183.316406 310.683594 182.808594 309.859375 182.34375 309.015625 C 181.878906 308.167969 181.457031 307.300781 181.078125 306.414062 C 180.695312 305.527344 180.359375 304.621094 180.070312 303.699219 C 179.777344 302.78125 179.53125 301.847656 179.332031 300.902344 C 179.132812 299.957031 178.980469 299.003906 178.875 298.042969 C 178.769531 297.085938 178.710938 296.121094 178.699219 295.15625 C 178.6875 294.191406 178.722656 293.226562 178.804688 292.265625 C 178.886719 291.300781 179.015625 290.347656 179.195312 289.398438 C 179.371094 288.449219 179.59375 287.507812 179.863281 286.582031 C 180.132812 285.652344 180.445312 284.742188 180.804688 283.84375 C 181.164062 282.949219 181.5625 282.070312 182.007812 281.214844 C 182.453125 280.355469 182.9375 279.523438 183.464844 278.714844 C 183.992188 277.902344 184.554688 277.121094 185.160156 276.367188 C 185.761719 275.613281 186.402344 274.890625 187.074219 274.199219 C 187.75 273.507812 188.457031 272.851562 189.195312 272.226562 C 189.933594 271.605469 190.703125 271.023438 191.496094 270.476562 C 192.292969 269.929688 193.113281 269.421875 193.960938 268.957031 C 194.804688 268.488281 195.671875 268.066406 196.558594 267.683594 C 197.449219 267.304688 198.351562 266.964844 199.273438 266.675781 C 200.191406 266.382812 201.125 266.136719 202.070312 265.933594 C 203.015625 265.734375 203.964844 265.578125 204.925781 265.472656 C 205.886719 265.363281 206.847656 265.304688 207.816406 265.292969 C 208.78125 265.28125 209.746094 265.3125 210.707031 265.394531 C 211.667969 265.476562 212.625 265.605469 213.574219 265.78125 C 214.523438 265.957031 215.464844 266.179688 216.390625 266.449219 C 217.320312 266.714844 218.230469 267.027344 219.128906 267.386719 C 220.027344 267.742188 220.902344 268.144531 221.761719 268.585938 C 222.617188 269.03125 223.453125 269.515625 224.261719 270.042969 C 225.074219 270.566406 225.855469 271.128906 226.609375 271.734375 L 349.660156 370.160156 C 351.65625 371.609375 353.703125 372.980469 355.804688 374.269531 C 357.90625 375.558594 360.054688 376.761719 362.253906 377.882812 C 364.449219 379.003906 366.6875 380.035156 368.964844 380.980469 C 371.242188 381.925781 373.550781 382.777344 375.898438 383.539062 C 378.242188 384.300781 380.613281 384.972656 383.011719 385.546875 C 385.410156 386.125 387.824219 386.605469 390.261719 386.992188 C 392.695312 387.375 395.140625 387.667969 397.601562 387.859375 C 400.058594 388.054688 402.519531 388.148438 404.984375 388.148438 C 407.453125 388.148438 409.914062 388.054688 412.371094 387.859375 C 414.828125 387.667969 417.277344 387.375 419.710938 386.992188 C 422.148438 386.605469 424.5625 386.125 426.960938 385.546875 C 429.359375 384.972656 431.730469 384.300781 434.074219 383.539062 C 436.417969 382.777344 438.730469 381.925781 441.007812 380.980469 C 443.285156 380.035156 445.523438 379.003906 447.71875 377.882812 C 449.914062 376.761719 452.066406 375.558594 454.167969 374.269531 C 456.269531 372.980469 458.316406 371.609375 460.3125 370.160156 L 506.632812 333.121094 C 507.386719 332.519531 508.167969 331.957031 508.980469 331.433594 C 509.789062 330.90625 510.625 330.421875 511.480469 329.980469 C 512.339844 329.535156 513.21875 329.136719 514.113281 328.777344 C 515.011719 328.421875 515.921875 328.109375 516.851562 327.839844 C 517.777344 327.574219 518.71875 327.351562 519.667969 327.175781 C 520.617188 327 521.574219 326.871094 522.535156 326.789062 C 523.496094 326.707031 524.460938 326.671875 525.425781 326.6875 C 526.390625 326.699219 527.355469 326.757812 528.3125 326.867188 C 529.273438 326.972656 530.226562 327.128906 531.171875 327.328125 C 532.113281 327.53125 533.046875 327.777344 533.96875 328.070312 C 534.886719 328.363281 535.792969 328.699219 536.679688 329.078125 C 537.566406 329.460938 538.433594 329.882812 539.277344 330.351562 C 540.125 330.816406 540.945312 331.324219 541.742188 331.871094 C 542.535156 332.417969 543.304688 333 544.042969 333.621094 C 544.78125 334.246094 545.488281 334.902344 546.160156 335.59375 C 546.835938 336.285156 547.472656 337.007812 548.078125 337.761719 C 548.679688 338.515625 549.246094 339.296875 549.773438 340.105469 C 550.296875 340.917969 550.785156 341.75 551.226562 342.605469 C 551.671875 343.464844 552.074219 344.339844 552.433594 345.238281 C 552.792969 346.132812 553.105469 347.046875 553.375 347.972656 C 553.644531 348.902344 553.867188 349.839844 554.042969 350.789062 C 554.21875 351.738281 554.351562 352.695312 554.433594 353.65625 C 554.515625 354.617188 554.550781 355.582031 554.539062 356.546875 C 554.527344 357.511719 554.46875 358.476562 554.363281 359.433594 C 554.257812 360.394531 554.105469 361.347656 553.90625 362.292969 C 553.707031 363.238281 553.460938 364.167969 553.167969 365.089844 C 552.878906 366.011719 552.542969 366.914062 552.164062 367.804688 C 551.78125 368.691406 551.359375 369.558594 550.894531 370.402344 C 550.429688 371.25 549.925781 372.070312 549.378906 372.867188 C 548.832031 373.664062 548.25 374.433594 547.628906 375.171875 C 547.007812 375.914062 546.351562 376.621094 545.660156 377.292969 C 544.972656 377.96875 544.25 378.609375 543.496094 379.214844 L 497.195312 416.25 C 493.929688 418.785156 490.566406 421.179688 487.101562 423.429688 C 483.632812 425.683594 480.082031 427.785156 476.4375 429.742188 C 472.796875 431.695312 469.078125 433.492188 465.289062 435.136719 C 461.496094 436.777344 457.640625 438.257812 453.722656 439.578125 C 449.804688 440.894531 445.839844 442.046875 441.828125 443.035156 C 437.8125 444.019531 433.765625 444.835938 429.683594 445.480469 C 425.601562 446.128906 421.5 446.601562 417.378906 446.90625 C 413.253906 447.207031 409.128906 447.335938 404.996094 447.292969 Z M 404.996094 447.292969 " fill-opacity="1" fill-rule="nonzero"/></svg>