<svg xmlns="http://www.w3.org/2000/svg" xmlns:xlink="http://www.w3.org/1999/xlink" width="978" zoomAndPan="magnify" viewBox="0 0 733.5 149.999998" height="200" preserveAspectRatio="xMidYMid meet" version="1.0"><defs><g/><clipPath id="493598a6f7"><path d="M 1 0.0507812 L 732 0.0507812 L 732 149.949219 L 1 149.949219 Z M 1 0.0507812 " clip-rule="nonzero"/></clipPath><clipPath id="327bfc0682"><path d="M 172 0.0507812 L 730.742188 0.0507812 L 730.742188 149.949219 L 172 149.949219 Z M 172 0.0507812 " clip-rule="nonzero"/></clipPath><clipPath id="8bdc9f7ede"><rect x="0" width="559" y="0" height="150"/></clipPath><clipPath id="33a956b7db"><path d="M 125 3 L 166.734375 3 L 166.734375 46 L 125 46 Z M 125 3 " clip-rule="nonzero"/></clipPath><clipPath id="0ffdc58281"><path d="M 0.554688 8 L 166.734375 8 L 166.734375 149.949219 L 0.554688 149.949219 Z M 0.554688 8 " clip-rule="nonzero"/></clipPath><clipPath id="e6d98b9e35"><rect x="0" width="731" y="0" height="150"/></clipPath></defs><g clip-path="url(#493598a6f7)"><g transform="matrix(1, 0, 0, 1, 1, 0.000000000000012261)"><g clip-path="url(#e6d98b9e35)"><g clip-path="url(#327bfc0682)"><g transform="matrix(1, 0, 0, 1, 172, 0.000000000000012261)"><g clip-path="url(#8bdc9f7ede)"><g fill="#000000" fill-opacity="1"><g transform="translate(1.117071, 119.667951)"><g><path d="M 52.59375 1.625 C 43.75 1.625 35.898438 -0.3125 29.046875 -4.1875 C 22.203125 -8.070312 16.859375 -13.4375 13.015625 -20.28125 C 9.179688 -27.132812 7.265625 -34.984375 7.265625 -43.828125 C 7.265625 -52.765625 9.179688 -60.632812 13.015625 -67.4375 C 16.859375 -74.238281 22.203125 -79.582031 29.046875 -83.46875 C 35.898438 -87.351562 43.75 -89.296875 52.59375 -89.296875 C 61.53125 -89.296875 69.398438 -87.351562 76.203125 -83.46875 C 83.003906 -79.582031 88.347656 -74.238281 92.234375 -67.4375 C 96.117188 -60.632812 98.0625 -52.765625 98.0625 -43.828125 C 98.0625 -34.984375 96.117188 -27.132812 92.234375 -20.28125 C 88.347656 -13.4375 83.003906 -8.070312 76.203125 -4.1875 C 69.398438 -0.3125 61.53125 1.625 52.59375 1.625 Z M 18.53125 -43.828125 C 18.53125 -37.066406 19.96875 -31.097656 22.84375 -25.921875 C 25.726562 -20.742188 29.738281 -16.691406 34.875 -13.765625 C 40.007812 -10.847656 45.914062 -9.390625 52.59375 -9.390625 C 59.363281 -9.390625 65.289062 -10.847656 70.375 -13.765625 C 75.46875 -16.691406 79.453125 -20.742188 82.328125 -25.921875 C 85.210938 -31.097656 86.65625 -37.066406 86.65625 -43.828125 C 86.65625 -50.671875 85.210938 -56.660156 82.328125 -61.796875 C 79.453125 -66.929688 75.46875 -70.957031 70.375 -73.875 C 65.289062 -76.800781 59.363281 -78.265625 52.59375 -78.265625 C 45.914062 -78.265625 40.007812 -76.800781 34.875 -73.875 C 29.738281 -70.957031 25.726562 -66.929688 22.84375 -61.796875 C 19.96875 -56.660156 18.53125 -50.671875 18.53125 -43.828125 Z M 18.53125 -43.828125 "/></g></g></g><g fill="#000000" fill-opacity="1"><g transform="translate(95.281485, 119.667951)"><g><path d="M 47.09375 1.625 C 42 1.625 37.300781 0.644531 33 -1.3125 C 28.695312 -3.28125 25.085938 -5.929688 22.171875 -9.265625 L 22.171875 25.046875 L 11.640625 25.046875 L 11.640625 -65 L 20.28125 -65 L 21.546875 -54.984375 C 24.460938 -58.648438 28.113281 -61.503906 32.5 -63.546875 C 36.882812 -65.597656 41.75 -66.625 47.09375 -66.625 C 53.519531 -66.625 59.21875 -65.140625 64.1875 -62.171875 C 69.15625 -59.210938 73.054688 -55.1875 75.890625 -50.09375 C 78.734375 -45 80.15625 -39.15625 80.15625 -32.5625 C 80.15625 -25.96875 78.734375 -20.101562 75.890625 -14.96875 C 73.054688 -9.832031 69.15625 -5.78125 64.1875 -2.8125 C 59.21875 0.144531 53.519531 1.625 47.09375 1.625 Z M 21.796875 -32.5625 C 21.796875 -27.882812 22.816406 -23.726562 24.859375 -20.09375 C 26.898438 -16.46875 29.71875 -13.628906 33.3125 -11.578125 C 36.90625 -9.535156 41.035156 -8.515625 45.703125 -8.515625 C 50.460938 -8.515625 54.640625 -9.535156 58.234375 -11.578125 C 61.828125 -13.628906 64.625 -16.46875 66.625 -20.09375 C 68.625 -23.726562 69.625 -27.882812 69.625 -32.5625 C 69.625 -37.238281 68.625 -41.390625 66.625 -45.015625 C 64.625 -48.648438 61.828125 -51.488281 58.234375 -53.53125 C 54.640625 -55.582031 50.460938 -56.609375 45.703125 -56.609375 C 41.035156 -56.609375 36.90625 -55.582031 33.3125 -53.53125 C 29.71875 -51.488281 26.898438 -48.648438 24.859375 -45.015625 C 22.816406 -41.390625 21.796875 -37.238281 21.796875 -32.5625 Z M 21.796875 -32.5625 "/></g></g></g><g fill="#000000" fill-opacity="1"><g transform="translate(170.913354, 119.667951)"><g><path d="M 39.828125 1.625 C 33.316406 1.625 27.554688 0.183594 22.546875 -2.6875 C 17.535156 -5.570312 13.609375 -9.601562 10.765625 -14.78125 C 7.929688 -19.957031 6.515625 -25.882812 6.515625 -32.5625 C 6.515625 -39.238281 7.929688 -45.144531 10.765625 -50.28125 C 13.609375 -55.414062 17.554688 -59.421875 22.609375 -62.296875 C 27.660156 -65.179688 33.441406 -66.625 39.953125 -66.625 C 46.878906 -66.625 52.890625 -64.992188 57.984375 -61.734375 C 63.078125 -58.484375 66.976562 -54 69.6875 -48.28125 C 72.40625 -42.5625 73.640625 -35.898438 73.390625 -28.296875 L 17.15625 -28.296875 C 17.988281 -22.203125 20.453125 -17.335938 24.546875 -13.703125 C 28.640625 -10.078125 33.773438 -8.265625 39.953125 -8.265625 C 44.210938 -8.265625 48.09375 -9.179688 51.59375 -11.015625 C 55.101562 -12.859375 57.859375 -15.488281 59.859375 -18.90625 L 71.765625 -18.90625 C 69.171875 -12.5625 65.035156 -7.550781 59.359375 -3.875 C 53.679688 -0.207031 47.171875 1.625 39.828125 1.625 Z M 17.28125 -37.5625 L 62.875 -37.5625 C 61.78125 -43.5 59.164062 -48.175781 55.03125 -51.59375 C 50.90625 -55.019531 45.878906 -56.734375 39.953125 -56.734375 C 33.941406 -56.734375 28.890625 -54.976562 24.796875 -51.46875 C 20.703125 -47.96875 18.195312 -43.332031 17.28125 -37.5625 Z M 17.28125 -37.5625 "/></g></g></g><g fill="#000000" fill-opacity="1"><g transform="translate(239.532933, 119.667951)"><g><path d="M 11.640625 0 L 11.640625 -65 L 20.28125 -65 L 21.421875 -55.484375 C 24.253906 -59.398438 27.695312 -62.234375 31.75 -63.984375 C 35.800781 -65.742188 39.992188 -66.625 44.328125 -66.625 C 53.015625 -66.625 59.78125 -63.867188 64.625 -58.359375 C 69.46875 -52.847656 71.890625 -45.457031 71.890625 -36.1875 L 71.890625 0 L 61.359375 0 L 61.359375 -35.1875 C 61.359375 -41.78125 59.707031 -47 56.40625 -50.84375 C 53.113281 -54.6875 48.628906 -56.609375 42.953125 -56.609375 C 38.941406 -56.609375 35.367188 -55.625 32.234375 -53.65625 C 29.109375 -51.695312 26.648438 -48.921875 24.859375 -45.328125 C 23.066406 -41.742188 22.171875 -37.570312 22.171875 -32.8125 L 22.171875 0 Z M 11.640625 0 "/></g></g></g><g fill="#0084ff" fill-opacity="1"><g transform="translate(310.788448, 119.667951)"><g><path d="M 41.953125 1.625 C 34.941406 1.625 28.867188 0.433594 23.734375 -1.9375 C 18.597656 -4.320312 14.628906 -7.660156 11.828125 -11.953125 C 9.035156 -16.253906 7.597656 -21.242188 7.515625 -26.921875 L 18.53125 -26.921875 C 18.695312 -21.328125 20.929688 -16.921875 25.234375 -13.703125 C 29.535156 -10.492188 35.109375 -8.890625 41.953125 -8.890625 C 48.128906 -8.890625 53.03125 -10.097656 56.65625 -12.515625 C 60.289062 -14.941406 62.109375 -18.328125 62.109375 -22.671875 C 62.109375 -26.753906 60.351562 -30.023438 56.84375 -32.484375 C 53.34375 -34.953125 47.628906 -37.109375 39.703125 -38.953125 C 28.929688 -41.535156 21.039062 -44.851562 16.03125 -48.90625 C 11.019531 -52.957031 8.515625 -58.363281 8.515625 -65.125 C 8.515625 -72.550781 11.332031 -78.4375 16.96875 -82.78125 C 22.601562 -87.125 30.222656 -89.296875 39.828125 -89.296875 C 49.679688 -89.296875 57.46875 -86.832031 63.1875 -81.90625 C 68.90625 -76.976562 71.804688 -70.253906 71.890625 -61.734375 L 60.984375 -61.734375 C 60.898438 -66.992188 58.957031 -71.144531 55.15625 -74.1875 C 51.363281 -77.238281 46.253906 -78.765625 39.828125 -78.765625 C 33.566406 -78.765625 28.660156 -77.535156 25.109375 -75.078125 C 21.554688 -72.617188 19.78125 -69.300781 19.78125 -65.125 C 19.78125 -61.53125 21.429688 -58.5 24.734375 -56.03125 C 28.035156 -53.570312 33.941406 -51.300781 42.453125 -49.21875 C 53.640625 -46.457031 61.613281 -43.007812 66.375 -38.875 C 71.132812 -34.75 73.515625 -29.472656 73.515625 -23.046875 C 73.515625 -15.441406 70.65625 -9.425781 64.9375 -5 C 59.21875 -0.582031 51.554688 1.625 41.953125 1.625 Z M 41.953125 1.625 "/></g></g></g><g fill="#0084ff" fill-opacity="1"><g transform="translate(380.785435, 119.667951)"><g><path d="M 12.78125 0 L 12.78125 -87.65625 L 23.046875 -87.65625 L 57.484375 -35.6875 L 91.671875 -87.65625 L 101.9375 -87.65625 L 101.9375 0 L 90.921875 0 L 90.921875 -67 L 61.859375 -23.296875 L 52.84375 -23.296875 L 23.796875 -67.125 L 23.796875 0 Z M 12.78125 0 "/></g></g></g><g fill="#0084ff" fill-opacity="1"><g transform="translate(484.466564, 119.667951)"><g><path d="M 41.953125 1.625 C 34.941406 1.625 28.867188 0.433594 23.734375 -1.9375 C 18.597656 -4.320312 14.628906 -7.660156 11.828125 -11.953125 C 9.035156 -16.253906 7.597656 -21.242188 7.515625 -26.921875 L 18.53125 -26.921875 C 18.695312 -21.328125 20.929688 -16.921875 25.234375 -13.703125 C 29.535156 -10.492188 35.109375 -8.890625 41.953125 -8.890625 C 48.128906 -8.890625 53.03125 -10.097656 56.65625 -12.515625 C 60.289062 -14.941406 62.109375 -18.328125 62.109375 -22.671875 C 62.109375 -26.753906 60.351562 -30.023438 56.84375 -32.484375 C 53.34375 -34.953125 47.628906 -37.109375 39.703125 -38.953125 C 28.929688 -41.535156 21.039062 -44.851562 16.03125 -48.90625 C 11.019531 -52.957031 8.515625 -58.363281 8.515625 -65.125 C 8.515625 -72.550781 11.332031 -78.4375 16.96875 -82.78125 C 22.601562 -87.125 30.222656 -89.296875 39.828125 -89.296875 C 49.679688 -89.296875 57.46875 -86.832031 63.1875 -81.90625 C 68.90625 -76.976562 71.804688 -70.253906 71.890625 -61.734375 L 60.984375 -61.734375 C 60.898438 -66.992188 58.957031 -71.144531 55.15625 -74.1875 C 51.363281 -77.238281 46.253906 -78.765625 39.828125 -78.765625 C 33.566406 -78.765625 28.660156 -77.535156 25.109375 -75.078125 C 21.554688 -72.617188 19.78125 -69.300781 19.78125 -65.125 C 19.78125 -61.53125 21.429688 -58.5 24.734375 -56.03125 C 28.035156 -53.570312 33.941406 -51.300781 42.453125 -49.21875 C 53.640625 -46.457031 61.613281 -43.007812 66.375 -38.875 C 71.132812 -34.75 73.515625 -29.472656 73.515625 -23.046875 C 73.515625 -15.441406 70.65625 -9.425781 64.9375 -5 C 59.21875 -0.582031 51.554688 1.625 41.953125 1.625 Z M 41.953125 1.625 "/></g></g></g></g></g></g><g clip-path="url(#33a956b7db)"><path fill="#0084ff" d="M 146.285156 3.964844 C 146.96875 3.964844 147.648438 3.996094 148.328125 4.066406 C 149.007812 4.132812 149.679688 4.230469 150.347656 4.363281 C 151.015625 4.496094 151.679688 4.664062 152.332031 4.859375 C 152.984375 5.058594 153.625 5.289062 154.253906 5.550781 C 154.882812 5.808594 155.5 6.101562 156.101562 6.421875 C 156.703125 6.742188 157.285156 7.09375 157.851562 7.472656 C 158.421875 7.851562 158.96875 8.257812 159.492188 8.691406 C 160.019531 9.121094 160.527344 9.578125 161.007812 10.0625 C 161.488281 10.542969 161.949219 11.050781 162.378906 11.574219 C 162.8125 12.101562 163.21875 12.648438 163.597656 13.21875 C 163.976562 13.785156 164.324219 14.367188 164.648438 14.96875 C 164.96875 15.570312 165.261719 16.1875 165.519531 16.816406 C 165.78125 17.445312 166.011719 18.085938 166.210938 18.738281 C 166.40625 19.390625 166.574219 20.054688 166.707031 20.722656 C 166.839844 21.390625 166.9375 22.0625 167.003906 22.742188 C 167.070312 23.421875 167.105469 24.101562 167.105469 24.78125 C 167.105469 25.464844 167.070312 26.144531 167.003906 26.824219 C 166.9375 27.503906 166.839844 28.175781 166.707031 28.84375 C 166.574219 29.511719 166.40625 30.175781 166.210938 30.828125 C 166.011719 31.480469 165.78125 32.121094 165.519531 32.75 C 165.261719 33.378906 164.96875 33.996094 164.648438 34.597656 C 164.324219 35.199219 163.976562 35.78125 163.597656 36.347656 C 163.21875 36.917969 162.8125 37.464844 162.378906 37.992188 C 161.949219 38.515625 161.488281 39.023438 161.007812 39.503906 C 160.527344 39.984375 160.019531 40.445312 159.492188 40.875 C 158.96875 41.308594 158.421875 41.714844 157.851562 42.09375 C 157.285156 42.472656 156.703125 42.820312 156.101562 43.144531 C 155.5 43.464844 154.882812 43.757812 154.253906 44.015625 C 153.625 44.277344 152.984375 44.507812 152.332031 44.707031 C 151.679688 44.902344 151.015625 45.070312 150.347656 45.203125 C 149.679688 45.335938 149.007812 45.433594 148.328125 45.5 C 147.648438 45.570312 146.96875 45.601562 146.285156 45.601562 C 145.605469 45.601562 144.925781 45.570312 144.246094 45.5 C 143.566406 45.433594 142.894531 45.335938 142.226562 45.203125 C 141.554688 45.070312 140.894531 44.902344 140.242188 44.707031 C 139.589844 44.507812 138.949219 44.277344 138.320312 44.015625 C 137.691406 43.757812 137.074219 43.464844 136.472656 43.144531 C 135.871094 42.820312 135.289062 42.472656 134.71875 42.09375 C 134.152344 41.714844 133.605469 41.308594 133.078125 40.875 C 132.550781 40.445312 132.046875 39.984375 131.566406 39.503906 C 131.082031 39.023438 130.625 38.515625 130.195312 37.992188 C 129.761719 37.464844 129.355469 36.917969 128.976562 36.347656 C 128.597656 35.78125 128.246094 35.199219 127.925781 34.597656 C 127.605469 33.996094 127.3125 33.378906 127.054688 32.75 C 126.792969 32.121094 126.5625 31.480469 126.363281 30.828125 C 126.167969 30.175781 126 29.511719 125.867188 28.84375 C 125.734375 28.175781 125.636719 27.503906 125.570312 26.824219 C 125.5 26.144531 125.46875 25.464844 125.46875 24.78125 C 125.46875 24.101562 125.5 23.421875 125.570312 22.742188 C 125.636719 22.0625 125.734375 21.390625 125.867188 20.722656 C 126 20.054688 126.167969 19.390625 126.363281 18.738281 C 126.5625 18.085938 126.792969 17.445312 127.054688 16.816406 C 127.3125 16.1875 127.605469 15.570312 127.925781 14.96875 C 128.246094 14.367188 128.597656 13.785156 128.976562 13.21875 C 129.355469 12.648438 129.761719 12.101562 130.195312 11.574219 C 130.625 11.050781 131.082031 10.542969 131.566406 10.0625 C 132.046875 9.578125 132.550781 9.121094 133.078125 8.691406 C 133.605469 8.257812 134.152344 7.851562 134.71875 7.472656 C 135.289062 7.09375 135.871094 6.742188 136.472656 6.421875 C 137.074219 6.101562 137.691406 5.808594 138.320312 5.550781 C 138.949219 5.289062 139.589844 5.058594 140.242188 4.859375 C 140.894531 4.664062 141.554688 4.496094 142.226562 4.363281 C 142.894531 4.230469 143.566406 4.132812 144.246094 4.066406 C 144.925781 3.996094 145.605469 3.964844 146.285156 3.964844 Z M 146.285156 3.964844 " fill-opacity="1" fill-rule="nonzero"/></g><g clip-path="url(#0ffdc58281)"><path fill="#0084ff" d="M 156.453125 56.496094 C 156.761719 56.402344 157.074219 56.324219 157.394531 56.265625 C 157.710938 56.210938 158.03125 56.171875 158.351562 56.152344 C 158.675781 56.128906 158.996094 56.128906 159.316406 56.148438 C 159.640625 56.164062 159.960938 56.203125 160.277344 56.257812 C 160.59375 56.3125 160.910156 56.386719 161.21875 56.476562 C 161.527344 56.570312 161.828125 56.679688 162.125 56.808594 C 162.421875 56.933594 162.710938 57.078125 162.988281 57.242188 C 163.269531 57.402344 163.535156 57.578125 163.796875 57.773438 C 164.054688 57.964844 164.300781 58.171875 164.535156 58.394531 C 164.769531 58.617188 164.988281 58.851562 165.195312 59.101562 C 165.402344 59.347656 165.59375 59.605469 165.769531 59.875 C 165.945312 60.148438 166.105469 60.425781 166.246094 60.714844 C 166.390625 61.003906 166.515625 61.300781 166.625 61.605469 C 166.734375 61.90625 166.824219 62.21875 166.898438 62.53125 C 166.96875 62.84375 167.023438 63.164062 167.058594 63.484375 C 167.09375 63.804688 167.109375 64.125 167.105469 64.449219 L 167.105469 108.058594 C 167.105469 137.203125 150.449219 149.695312 125.46875 149.695312 L 42.195312 149.695312 C 17.210938 149.695312 0.554688 137.203125 0.554688 108.058594 L 0.554688 49.765625 C 0.554688 20.621094 17.210938 8.128906 42.195312 8.128906 L 105.53125 8.128906 C 106.15625 8.136719 106.777344 8.214844 107.386719 8.359375 C 107.996094 8.507812 108.578125 8.71875 109.140625 9 C 109.703125 9.277344 110.226562 9.613281 110.714844 10.007812 C 111.199219 10.402344 111.636719 10.847656 112.023438 11.339844 C 112.410156 11.832031 112.738281 12.363281 113.003906 12.929688 C 113.273438 13.496094 113.476562 14.085938 113.613281 14.695312 C 113.75 15.308594 113.816406 15.925781 113.8125 16.554688 C 113.8125 17.179688 113.738281 17.800781 113.597656 18.410156 C 112.582031 23.652344 112.792969 28.84375 114.238281 33.984375 C 114.625 35.359375 115.101562 36.703125 115.664062 38.019531 C 116.226562 39.332031 116.871094 40.605469 117.597656 41.835938 C 118.324219 43.066406 119.128906 44.242188 120.007812 45.367188 C 120.886719 46.496094 121.835938 47.558594 122.855469 48.5625 C 123.875 49.566406 124.953125 50.496094 126.089844 51.359375 C 127.230469 52.222656 128.421875 53.007812 129.660156 53.71875 C 130.902344 54.425781 132.183594 55.050781 133.507812 55.59375 C 134.828125 56.136719 136.179688 56.589844 137.5625 56.960938 C 140.667969 57.789062 143.828125 58.164062 147.042969 58.085938 C 150.253906 58.007812 153.394531 57.476562 156.453125 56.496094 Z M 156.453125 56.496094 " fill-opacity="1" fill-rule="nonzero"/></g><path fill="#ffffff" d="M 83.832031 86.195312 C 80.300781 86.230469 76.867188 85.6875 73.519531 84.5625 C 70.175781 83.433594 67.109375 81.789062 64.320312 79.628906 L 38.292969 58.804688 C 37.972656 58.546875 37.683594 58.261719 37.417969 57.949219 C 37.15625 57.636719 36.925781 57.300781 36.726562 56.941406 C 36.53125 56.582031 36.371094 56.207031 36.246094 55.816406 C 36.125 55.425781 36.039062 55.027344 35.992188 54.621094 C 35.949219 54.214844 35.945312 53.804688 35.980469 53.398438 C 36.015625 52.988281 36.089844 52.589844 36.203125 52.195312 C 36.316406 51.800781 36.46875 51.421875 36.65625 51.058594 C 36.84375 50.695312 37.066406 50.355469 37.324219 50.035156 C 37.578125 49.714844 37.863281 49.421875 38.175781 49.160156 C 38.492188 48.894531 38.828125 48.664062 39.183594 48.464844 C 39.542969 48.269531 39.917969 48.109375 40.308594 47.984375 C 40.699219 47.859375 41.097656 47.773438 41.503906 47.730469 C 41.914062 47.683594 42.320312 47.679688 42.726562 47.714844 C 43.136719 47.746094 43.539062 47.820312 43.929688 47.9375 C 44.324219 48.050781 44.703125 48.199219 45.066406 48.386719 C 45.429688 48.578125 45.773438 48.796875 46.09375 49.054688 L 72.125 69.875 C 72.96875 70.492188 73.859375 71.035156 74.789062 71.511719 C 75.71875 71.984375 76.679688 72.382812 77.675781 72.707031 C 78.667969 73.03125 79.679688 73.273438 80.714844 73.4375 C 81.746094 73.601562 82.785156 73.683594 83.828125 73.683594 C 84.875 73.683594 85.914062 73.601562 86.945312 73.4375 C 87.976562 73.273438 88.988281 73.03125 89.984375 72.707031 C 90.976562 72.382812 91.9375 71.984375 92.871094 71.511719 C 93.800781 71.035156 94.6875 70.492188 95.53125 69.875 L 105.332031 62.042969 C 105.652344 61.785156 105.996094 61.5625 106.359375 61.375 C 106.722656 61.1875 107.101562 61.039062 107.496094 60.921875 C 107.886719 60.808594 108.289062 60.734375 108.695312 60.703125 C 109.105469 60.667969 109.511719 60.671875 109.917969 60.71875 C 110.328125 60.761719 110.726562 60.847656 111.117188 60.972656 C 111.507812 61.097656 111.878906 61.257812 112.238281 61.453125 C 112.597656 61.652344 112.933594 61.882812 113.246094 62.148438 C 113.558594 62.410156 113.84375 62.703125 114.101562 63.023438 C 114.355469 63.34375 114.578125 63.683594 114.765625 64.046875 C 114.957031 64.410156 115.105469 64.789062 115.222656 65.183594 C 115.335938 65.578125 115.410156 65.976562 115.445312 66.386719 C 115.480469 66.792969 115.476562 67.199219 115.429688 67.609375 C 115.386719 68.015625 115.300781 68.414062 115.175781 68.804688 C 115.054688 69.195312 114.894531 69.570312 114.695312 69.929688 C 114.5 70.289062 114.269531 70.625 114.003906 70.9375 C 113.742188 71.25 113.449219 71.535156 113.132812 71.792969 L 103.335938 79.628906 C 100.550781 81.792969 97.484375 83.4375 94.140625 84.5625 C 90.796875 85.6875 87.359375 86.230469 83.832031 86.195312 Z M 83.832031 86.195312 " fill-opacity="1" fill-rule="nonzero"/></g></g></g></svg>